<svg width="27" height="27" viewBox="0 0 27 27" fill="none" xmlns="http://www.w3.org/2000/svg">
<path fill-rule="evenodd" clip-rule="evenodd" d="M14.4142 0H14L13.7071 0.292893L0.707107 13.2929L0 14L0.707107 14.7071L12.2071 26.2071L12.9142 26.9142L13.6213 26.2071L26.1213 13.7071L26.4142 13.4142V13V1V0H25.4142H14.4142ZM2.82843 14L14.8284 2H24.4142V12.5858L12.9142 24.0858L2.82843 14ZM21.4142 7C21.4142 8.10457 20.5188 9 19.4142 9C18.3096 9 17.4142 8.10457 17.4142 7C17.4142 5.89543 18.3096 5 19.4142 5C20.5188 5 21.4142 5.89543 21.4142 7Z" fill="black"/>
</svg>
