<?xml version="1.0" standalone="no"?>
<!DOCTYPE svg PUBLIC "-//W3C//DTD SVG 20010904//EN"
 "http://www.w3.org/TR/2001/REC-SVG-20010904/DTD/svg10.dtd">
<svg version="1.0" xmlns="http://www.w3.org/2000/svg"
 width="480.000000pt" height="480.000000pt" viewBox="0 0 480.000000 480.000000"
 preserveAspectRatio="xMidYMid meet">
<metadata>
Created by potrace 1.14, written by Peter Selinger 2001-2017
</metadata>
<g transform="translate(0.000000,480.000000) scale(0.100000,-0.100000)"
fill="#000000" stroke="none">
<path d="M0 2415 l0 -2385 1320 0 1320 0 0 133 c1 72 1 552 1 1065 0 512 3
932 7 933 45 6 1625 2 1629 -4 3 -5 5 -485 6 -1068 l0 -1059 248 0 249 0 -2
2382 -3 2383 -245 0 -245 0 -2 -1050 c-1 -577 -2 -1058 -2 -1067 -1 -16 -25
-17 -285 -18 l-283 0 1 1064 c1 939 -1 1065 -14 1068 -8 2 -121 4 -250 3
l-235 0 0 -1068 0 -1067 -287 1 -288 0 0 997 c0 548 0 1030 0 1070 l0 72
-1320 0 -1320 0 0 -2385z m2138 1881 c3 -4 6 -133 7 -286 l0 -280 -822 0
c-651 0 -823 3 -824 13 -1 13 0 537 0 549 1 4 13 8 29 10 54 6 1603 0 1610 -6z
m4 -1078 c3 -11 2 -502 -1 -546 -1 -10 -170 -12 -823 -12 l-823 1 2 262 c1
144 2 272 2 285 l1 22 819 0 c646 0 820 -3 823 -12z m2 -1338 l0 -285 -822 -1
c-737 0 -822 2 -823 15 -3 68 0 541 4 548 3 4 373 8 823 8 l817 0 1 -285z m-3
-789 c1 -8 1 -543 0 -556 -1 -11 -1626 -13 -1637 -2 -8 7 -9 541 -1 553 6 11
1636 15 1638 5z"/>
</g>
</svg>
